<svg id="visual" viewBox="0 0 900 600" width="900" height="600" xmlns="http://www.w3.org/2000/svg" xmlns:xlink="http://www.w3.org/1999/xlink" version="1.1"><path d="M0 115L13.7 105C27.3 95 54.7 75 82 64C109.3 53 136.7 51 163.8 55C191 59 218 69 245.2 85C272.3 101 299.7 123 327 126C354.3 129 381.7 113 409 99C436.3 85 463.7 73 491 72C518.3 71 545.7 81 573 88C600.3 95 627.7 99 654.8 104C682 109 709 115 736.2 122C763.3 129 790.7 137 818 127C845.3 117 872.7 89 886.3 75L900 61L900 0L886.3 0C872.7 0 845.3 0 818 0C790.7 0 763.3 0 736.2 0C709 0 682 0 654.8 0C627.7 0 600.3 0 573 0C545.7 0 518.3 0 491 0C463.7 0 436.3 0 409 0C381.7 0 354.3 0 327 0C299.7 0 272.3 0 245.2 0C218 0 191 0 163.8 0C136.7 0 109.3 0 82 0C54.7 0 27.3 0 13.7 0L0 0Z" fill="#659f8c"></path><path d="M0 307L13.7 308C27.3 309 54.7 311 82 298C109.3 285 136.7 257 163.8 250C191 243 218 257 245.2 257C272.3 257 299.7 243 327 243C354.3 243 381.7 257 409 260C436.3 263 463.7 255 491 257C518.3 259 545.7 271 573 264C600.3 257 627.7 231 654.8 220C682 209 709 213 736.2 231C763.3 249 790.7 281 818 281C845.3 281 872.7 249 886.3 233L900 217L900 59L886.3 73C872.7 87 845.3 115 818 125C790.7 135 763.3 127 736.2 120C709 113 682 107 654.8 102C627.7 97 600.3 93 573 86C545.7 79 518.3 69 491 70C463.7 71 436.3 83 409 97C381.7 111 354.3 127 327 124C299.7 121 272.3 99 245.2 83C218 67 191 57 163.8 53C136.7 49 109.3 51 82 62C54.7 73 27.3 93 13.7 103L0 113Z" fill="#7ab9a4"></path><path d="M0 379L13.7 377C27.3 375 54.7 371 82 362C109.3 353 136.7 339 163.8 340C191 341 218 357 245.2 354C272.3 351 299.7 329 327 326C354.3 323 381.7 339 409 346C436.3 353 463.7 351 491 355C518.3 359 545.7 369 573 361C600.3 353 627.7 327 654.8 313C682 299 709 297 736.2 311C763.3 325 790.7 355 818 351C845.3 347 872.7 309 886.3 290L900 271L900 215L886.3 231C872.7 247 845.3 279 818 279C790.7 279 763.3 247 736.2 229C709 211 682 207 654.8 218C627.7 229 600.3 255 573 262C545.7 269 518.3 257 491 255C463.7 253 436.3 261 409 258C381.7 255 354.3 241 327 241C299.7 241 272.3 255 245.2 255C218 255 191 241 163.8 248C136.7 255 109.3 283 82 296C54.7 309 27.3 307 13.7 306L0 305Z" fill="#8fd4bd"></path><path d="M0 499L13.7 502C27.3 505 54.7 511 82 512C109.3 513 136.7 509 163.8 504C191 499 218 493 245.2 498C272.3 503 299.7 519 327 518C354.3 517 381.7 499 409 497C436.3 495 463.7 509 491 513C518.3 517 545.7 511 573 506C600.3 501 627.7 497 654.8 494C682 491 709 489 736.2 500C763.3 511 790.7 535 818 540C845.3 545 872.7 531 886.3 524L900 517L900 269L886.3 288C872.7 307 845.3 345 818 349C790.7 353 763.3 323 736.2 309C709 295 682 297 654.8 311C627.7 325 600.3 351 573 359C545.7 367 518.3 357 491 353C463.7 349 436.3 351 409 344C381.7 337 354.3 321 327 324C299.7 327 272.3 349 245.2 352C218 355 191 339 163.8 338C136.7 337 109.3 351 82 360C54.7 369 27.3 373 13.7 375L0 377Z" fill="#a0dbc9"></path><path d="M0 601L13.7 601C27.3 601 54.7 601 82 601C109.3 601 136.7 601 163.8 601C191 601 218 601 245.2 601C272.3 601 299.7 601 327 601C354.3 601 381.7 601 409 601C436.3 601 463.7 601 491 601C518.3 601 545.7 601 573 601C600.3 601 627.7 601 654.8 601C682 601 709 601 736.2 601C763.3 601 790.7 601 818 601C845.3 601 872.7 601 886.3 601L900 601L900 515L886.3 522C872.7 529 845.3 543 818 538C790.7 533 763.3 509 736.2 498C709 487 682 489 654.8 492C627.7 495 600.3 499 573 504C545.7 509 518.3 515 491 511C463.7 507 436.3 493 409 495C381.7 497 354.3 515 327 516C299.7 517 272.3 501 245.2 496C218 491 191 497 163.8 502C136.7 507 109.3 511 82 510C54.7 509 27.3 503 13.7 500L0 497Z" fill="#b1e2d4"></path></svg>